<svg xmlns="http://www.w3.org/2000/svg" xmlns:xlink="http://www.w3.org/1999/xlink" id="body_1" preserveAspectRatio="xMinYMin meet" viewBox="0 0 816 1056"><defs><clipPath id="1"><path d="M0 792L0 0L0 0L612 0L612 0L612 792L612 792L0 792z" /></clipPath><clipPath id="2"><path d="M329.171 440.017L366.517 440.017L366.517 440.017L366.517 402.671L366.517 402.671L329.171 402.671z" /></clipPath><clipPath id="3"><path d="M328.488 493.839L367.2 493.839L367.2 493.839L367.2 455.128L367.2 455.128L328.488 455.128z" /></clipPath><clipPath id="4"><path d="M210 300.2L391.201 300.2L391.201 300.2L391.201 190.6L391.201 190.6L210 190.6z" /></clipPath><clipPath id="5"><path d="M0 792L612 792L612 792L612 0L612 0L0 0z" /></clipPath><clipPath id="6"><path d="M524.997 704.6533L558.981 704.6533L558.981 704.6533L558.981 753L558.981 753L524.997 753z" /></clipPath><clipPath id="7"><path d="M525.997 752L557.981 752L557.981 752L557.981 705.653L557.981 705.653L525.997 705.653z" /></clipPath></defs><g transform="matrix(1.333333 0 0 1.333333 0 0)"><g><g clip-path="url(#1)"><g clip-path="url(#2)"><path transform="matrix(1 0 0 -1 0 792)" d="M366.517 370.6553C 366.517 360.3423 358.157 351.9823 347.844 351.9823C 337.532 351.9823 329.172 360.3423 329.172 370.6553C 329.172 380.9683 337.532 389.3283 347.844 389.3283C 358.157 389.3283 366.517 380.9683 366.517 370.6553" stroke="none" fill="#3D3D3E" fill-rule="winding" /><path transform="matrix(1 0 0 -1 0 792)" d="M351.539 379.9391L337.917 378.6891C 336.879 378.5931 335.949 379.0891 335.886 379.7711C 335.824 380.4531 336.648 381.1091 337.686 381.2051L337.686 381.2051L351.308 382.4551C 351.567 382.4791 351.759 382.7091 351.735 382.9691C 351.711 383.2281 351.481 383.4201 351.221 383.3961L351.221 383.3961L337.6 382.1461C 336.025 382.0011 334.835 380.8971 334.946 379.6841L334.946 379.6841L336.553 362.1731C 336.664 360.9611 338.036 360.0921 339.611 360.2371L339.611 360.2371L353.232 361.4871C 353.492 361.5111 353.683 361.7401 353.659 362.0001L353.659 362.0001L352.052 379.5111C 352.028 379.7711 351.799 379.9631 351.539 379.9391M342.661 367.6661L342.132 368.8181L342.132 368.8181L340.285 368.6491L340.285 368.6491L339.975 367.4201L339.975 367.4201L339.399 367.3671L339.399 367.3671L340.561 371.7811L340.561 371.7811L341.319 371.8511L341.319 371.8511L343.266 367.7221zM346.946 368.8181C 346.881 368.6481 346.785 368.5041 346.659 368.3861C 346.51 368.2461 346.342 368.1391 346.154 368.0681C 345.967 367.9971 345.725 367.9481 345.429 367.9201L345.429 367.9201L343.914 367.7811L343.914 367.7811L343.522 372.0531L343.522 372.0531L344.787 372.1691C 345.099 372.1981 345.333 372.2081 345.49 372.1991C 345.648 372.1901 345.8 372.1561 345.948 372.0971C 346.113 372.0281 346.236 371.9331 346.319 371.8111C 346.401 371.6881 346.451 371.5371 346.467 371.3571C 346.486 371.1541 346.45 370.9771 346.36 370.8251C 346.27 370.6731 346.142 370.5461 345.978 370.4451L345.978 370.4451L345.98 370.4211C 346.275 370.3891 346.514 370.2831 346.698 370.1041C 346.882 369.9251 346.988 369.6871 347.015 369.3911C 347.034 369.1791 347.012 368.9881 346.946 368.8181M350.938 371.7531L350.895 371.7491C 350.642 371.9241 350.395 372.0461 350.155 372.1151C 349.916 372.1841 349.664 372.2061 349.4 372.1821C 349.184 372.1621 348.993 372.1091 348.826 372.0231C 348.659 371.9381 348.515 371.8151 348.393 371.6551C 348.274 371.5001 348.188 371.3091 348.134 371.0831C 348.081 370.8581 348.067 370.6011 348.093 370.3151C 348.121 370.0141 348.185 369.7601 348.286 369.5511C 348.387 369.3431 348.508 369.1761 348.649 369.0521C 348.796 368.9231 348.962 368.8321 349.147 368.7811C 349.332 368.7301 349.524 368.7131 349.723 368.7311C 349.996 368.7561 350.248 368.8271 350.479 368.9421C 350.709 369.0581 350.92 369.2191 351.111 369.4261L351.111 369.4261L351.151 369.4291L351.151 369.4291L351.212 368.7641C 351.111 368.7081 351.02 368.6561 350.939 368.6081C 350.857 368.5611 350.75 368.5081 350.616 368.4521C 350.503 368.4041 350.379 368.3621 350.245 368.3241C 350.11 368.2851 349.961 368.2581 349.797 368.2431C 349.487 368.2151 349.201 368.2321 348.94 368.2961C 348.678 368.3601 348.445 368.4761 348.241 368.6441C 348.041 368.8091 347.876 369.0271 347.747 369.2981C 347.618 369.5681 347.536 369.8891 347.502 370.2601C 347.47 370.6121 347.491 370.9311 347.565 371.2181C 347.639 371.5041 347.761 371.7521 347.931 371.9601C 348.096 372.1621 348.302 372.3241 348.55 372.4451C 348.798 372.5661 349.079 372.6411 349.393 372.6701C 349.622 372.6911 349.854 372.6841 350.088 372.6501C 350.321 372.6151 350.584 372.5411 350.876 372.4271z" stroke="none" fill="#FFFFFF" fill-rule="winding" /><path transform="matrix(1 0 0 -1 0 792)" d="M340.4123 369.1527L341.9123 369.2907L341.9123 369.2907L340.9713 371.3187z" stroke="none" fill="#FFFFFF" fill-rule="winding" /><path transform="matrix(1 0 0 -1 0 792)" d="M345.4043 370.5207C 345.5083 370.5487 345.6023 370.5947 345.6863 370.6607C 345.7713 370.7267 345.8283 370.8067 345.8573 370.9007C 345.8853 370.9947 345.8943 371.1037 345.8833 371.2287C 345.8733 371.3317 345.8483 371.4177 345.8073 371.4847C 345.7663 371.5527 345.7063 371.6047 345.6253 371.6417C 345.5313 371.6847 345.4193 371.7067 345.2893 371.7077C 345.1603 371.7087 345.0013 371.6997 344.8123 371.6827L344.8123 371.6827L344.1343 371.6207L344.1343 371.6207L344.2483 370.3867L344.2483 370.3867L344.9823 370.4547C 345.1603 370.4707 345.3013 370.4927 345.4043 370.5207" stroke="none" fill="#FFFFFF" fill-rule="winding" /><path transform="matrix(1 0 0 -1 0 792)" d="M346.0064 369.9497C 345.9104 369.9887 345.7954 370.0097 345.6634 370.0117C 345.5314 370.0147 345.3714 370.0067 345.1844 369.9897L345.1844 369.9897L344.2914 369.9077L344.2914 369.9077L344.4374 368.3187L344.4374 368.3187L345.1894 368.3877C 345.4374 368.4107 345.6404 368.4417 345.7964 368.4827C 345.9534 368.5227 346.0784 368.5817 346.1734 368.6607C 346.2744 368.7447 346.3444 368.8367 346.3854 368.9367C 346.4264 369.0377 346.4404 369.1627 346.4264 369.3137C 346.4104 369.4857 346.3724 369.6207 346.3114 369.7177C 346.2504 369.8137 346.1484 369.8917 346.0064 369.9497" stroke="none" fill="#FFFFFF" fill-rule="winding" /><path transform="matrix(1 0 0 -1 0 792)" d="M354.78 369.5247L349.622 362.1577L349.622 362.1577L349.193 356.1077L349.193 356.1077L354.731 358.5787L354.731 358.5787L359.89 365.9467zM351.47 357.8997L350.098 358.8607L350.098 358.8607L350.298 361.6837L350.298 361.6837L354.054 359.0527z" stroke="none" fill="#FFFFFF" fill-rule="winding" /><path transform="matrix(1 0 0 -1 0 792)" d="M359.5826 370.9451C 360.9926 369.9571 361.7246 368.5671 361.2166 367.8411L361.2166 367.8411L360.2956 366.5271L360.2956 366.5271L355.1856 370.1051C 355.1856 370.1051 355.5986 370.6931 356.1076 371.4201C 356.6146 372.1461 358.1716 371.9331 359.5826 370.9451" stroke="none" fill="#FFFFFF" fill-rule="winding" /></g><g clip-path="url(#3)"><path transform="matrix(1 0 0 -1 0 792)" d="M367.2 317.5164C 367.2 306.8264 358.534 298.1604 347.844 298.1604C 337.154 298.1604 328.488 306.8264 328.488 317.5164C 328.488 328.2064 337.154 336.8724 347.844 336.8724C 358.534 336.8724 367.2 328.2064 367.2 317.5164" stroke="none" fill="#3D3D3E" fill-rule="winding" /><path transform="matrix(1 0 0 -1 0 792)" d="M360.4473 315.6453C 360.3543 316.5013 359.9943 317.2903 359.4063 317.9283C 359.6193 318.4453 359.6993 319.0153 359.6383 319.5763C 359.5053 320.7873 358.7293 321.8353 357.6083 322.3173C 357.6253 322.5313 357.6223 322.7433 357.6003 322.9463C 357.4643 324.1843 356.6583 325.2403 355.4943 325.7093L355.4943 325.7093L355.4983 325.7173L355.4983 325.7173L355.4703 325.7283C 355.4363 325.7413 355.4013 325.7533 355.3663 325.7643L355.3663 325.7643L355.3123 325.7823C 355.3033 325.7853 355.2953 325.7883 355.2863 325.7923C 355.2823 325.7943 355.2773 325.7963 355.2723 325.7983C 355.0393 327.4213 353.6943 328.6373 352.0663 328.6983C 351.6803 329.3843 350.9563 329.8103 350.1743 329.8103C 348.9723 329.8103 347.9953 328.8323 347.9953 327.6313C 347.9953 327.0563 348.2223 326.5133 348.6353 326.1003C 348.5443 325.7223 348.5203 325.3353 348.5623 324.9493C 348.6133 324.4813 348.7603 324.0363 348.9983 323.6243C 348.2683 322.7693 347.9343 321.6883 348.0553 320.5753C 348.1463 319.7473 348.4863 318.9793 349.0413 318.3523C 348.4783 317.5503 348.2273 316.5773 348.3333 315.6083C 348.3743 315.2303 348.4733 314.8533 348.6273 314.4883C 348.3693 313.9853 348.2323 313.4213 348.2323 312.8563C 348.2323 312.2733 348.3783 311.6923 348.6553 311.1753C 348.2233 310.5423 347.9953 309.8033 347.9953 309.0373C 347.9953 306.9343 349.7063 305.2233 351.8093 305.2233C 353.5233 305.2233 354.9903 306.3233 355.4673 307.9623C 355.6163 307.9443 355.7633 307.9353 355.9053 307.9353C 357.9163 307.9353 359.5523 309.5713 359.5523 311.5823C 359.5523 311.8973 359.5123 312.2093 359.4323 312.5113C 360.2033 313.3643 360.5723 314.5053 360.4473 315.6453M355.9053 308.4433C 355.7213 308.4433 355.5263 308.4623 355.3263 308.4993L355.3263 308.4993L355.0853 308.5443L355.0853 308.5443L355.0313 308.3053C 354.6883 306.7903 353.3633 305.7313 351.8093 305.7313C 349.9863 305.7313 348.5033 307.2143 348.5033 309.0373C 348.5033 309.7493 348.7303 310.4313 349.1593 311.0073L349.1593 311.0073L349.2613 311.1433L349.2613 311.1433L349.1743 311.2893C 348.8903 311.7663 348.7403 312.3073 348.7403 312.8563C 348.7403 313.3783 348.8753 313.8953 349.1313 314.3523L349.1313 314.3523L349.1943 314.4653L349.1943 314.4653L349.1413 314.5823C 348.9813 314.9323 348.8793 315.2953 348.8383 315.6643C 348.7453 316.5163 348.9693 317.3733 349.4693 318.0773L349.4693 318.0773L349.6913 318.3893L349.6913 318.3893L349.4343 318.6743C 348.9423 319.2243 348.6403 319.9013 348.5603 320.6313C 348.4543 321.6073 348.7503 322.5583 349.3963 323.3073L349.3963 323.3073L349.6213 323.5693L349.6213 323.5693L349.4463 323.8653C 349.2383 324.2193 349.1113 324.6033 349.0683 325.0043C 349.0273 325.3773 349.0593 325.7493 349.1643 326.1113L349.1643 326.1113L349.2103 326.2673L349.2103 326.2673L349.0863 326.3743C 348.7163 326.6963 348.5033 327.1543 348.5033 327.6313C 348.5033 328.5523 349.2523 329.3013 350.1743 329.3013C 350.8143 329.3013 351.4063 328.9233 351.6813 328.3383L351.6813 328.3383L351.7503 328.1903L351.7503 328.1903L351.9133 328.1923C 353.2903 328.1923 354.4413 327.2593 354.7243 325.9173C 354.5503 325.9413 354.3893 325.9533 354.2333 325.9533C 353.8443 325.9533 353.4563 325.8833 353.0813 325.7443C 352.8023 326.0313 352.4543 326.2373 352.0753 326.3383C 351.8903 326.3883 351.6983 326.4133 351.5073 326.4133C 351.4203 326.4133 351.3323 326.4083 351.2453 326.3973L351.2453 326.3973L351.2193 326.3943L351.2193 326.3943L351.2413 325.8973L351.2413 325.8973L351.2723 325.9013C 351.3503 325.9123 351.4293 325.9183 351.5073 325.9183C 351.6573 325.9183 351.8053 325.8983 351.9473 325.8603C 352.1893 325.7953 352.4073 325.6823 352.5973 325.5253C 351.5413 324.9303 350.8873 323.8163 350.8873 322.6073L350.8873 322.6073L350.8873 322.5793L350.8873 322.5793L351.3953 322.5793L351.3953 322.5793L351.3953 322.6073C 351.3953 324.1723 352.6683 325.4453 354.2333 325.4453C 354.5743 325.4453 354.9033 325.3873 355.2123 325.2753C 356.2533 324.8963 356.9753 323.9833 357.0953 322.8913C 357.1143 322.7113 357.1163 322.5253 357.1003 322.3383L357.1003 322.3383L357.0723 321.9923L357.0723 321.9923L357.3913 321.8573C 358.3523 321.4503 359.0193 320.5553 359.1323 319.5213C 359.1853 319.0383 359.1153 318.5493 358.9303 318.1073L358.9303 318.1073L358.8123 317.8223L358.8123 317.8223L359.0213 317.5963C 359.5413 317.0363 359.8603 316.3433 359.9423 315.5893C 360.0563 314.5453 359.7003 313.5133 358.9663 312.7573L358.9663 312.7573L358.8613 312.6483L358.8613 312.6483L358.9063 312.5053C 358.9973 312.2063 359.0443 311.8963 359.0443 311.5823C 359.0443 309.8513 357.6363 308.4433 355.9053 308.4433" stroke="none" fill="#FFFFFF" fill-rule="winding" /><path transform="matrix(1 0 0 -1 0 792)" d="M356.7639 315.3946L357.1459 315.0796L357.1459 315.0796L357.1629 315.1016C 357.5189 315.5516 357.6839 316.1126 357.6309 316.6826C 357.5749 317.2706 357.2939 317.8016 356.8389 318.1776C 356.4449 318.5026 355.9459 318.6816 355.4339 318.6816C 355.3099 318.6816 355.1849 318.6716 355.0619 318.6506C 354.5559 318.5656 354.0929 318.3046 353.7579 317.9166L353.7579 317.9166L353.7399 317.8946L353.7399 317.8946L354.1209 317.5796L354.1209 317.5796L354.1389 317.5996C 354.3979 317.8976 354.7549 318.0976 355.1439 318.1626C 355.2399 318.1786 355.3369 318.1866 355.4329 318.1866C 355.8309 318.1866 356.2179 318.0476 356.5229 317.7956C 356.8759 317.5036 357.0939 317.0916 357.1379 316.6366C 357.1789 316.1956 357.0529 315.7626 356.7809 315.4156z" stroke="none" fill="#FFFFFF" fill-rule="winding" /><path transform="matrix(1 0 0 -1 0 792)" d="M357.9218 314.0079C 358.1618 314.1739 358.4408 314.2619 358.7298 314.2619C 358.8148 314.2619 358.9008 314.2549 358.9848 314.2389L358.9848 314.2389L359.0128 314.2339L359.0128 314.2339L359.1028 314.7349L359.1028 314.7349L359.0748 314.7399C 358.9608 314.7599 358.8448 314.7709 358.7308 314.7709C 358.3378 314.7709 357.9578 314.6509 357.6318 314.4249C 357.2808 314.1809 357.0268 313.8289 356.8968 313.4069C 356.7598 313.3639 356.6168 313.3419 356.4728 313.3419C 355.9248 313.3419 355.4208 313.6589 355.1888 314.1499C 355.0278 314.4929 355.0088 314.8789 355.1368 315.2369C 355.2658 315.5949 355.5258 315.8809 355.8678 316.0419L355.8678 316.0419L355.8928 316.0539L355.8928 316.0539L355.6758 316.5139L355.6758 316.5139L355.6508 316.5019C 355.1848 316.2809 354.8328 315.8929 354.6588 315.4079C 354.4848 314.9219 354.5098 314.3979 354.7298 313.9329C 355.0458 313.2659 355.7298 312.8339 356.4738 312.8339C 356.5858 312.8339 356.6998 312.8439 356.8098 312.8639C 356.8008 311.9299 357.4738 311.1079 358.3898 310.9419L358.3898 310.9419L358.4168 310.9369L358.4168 310.9369L358.5078 311.4359L358.5078 311.4359L358.4798 311.4409C 357.7098 311.5809 357.1958 312.3229 357.3338 313.0929C 357.4008 313.4659 357.6098 313.7909 357.9218 314.0079" stroke="none" fill="#FFFFFF" fill-rule="winding" /><path transform="matrix(1 0 0 -1 0 792)" d="M352.3738 312.365L352.6998 312.015L352.6998 312.015L352.7748 312.085C 353.0168 312.309 353.1578 312.616 353.1708 312.949C 353.1828 313.281 353.0658 313.598 352.8398 313.841C 352.7598 313.926 352.6678 314 352.5658 314.061C 352.3758 314.174 352.1568 314.234 351.9338 314.234C 351.9058 314.234 351.8778 314.233 351.8498 314.231C 351.9378 314.452 351.9848 314.681 351.9918 314.91C 352.0038 315.303 351.9028 315.684 351.6998 316.016C 352.1428 316.283 352.4678 316.673 352.6418 317.146C 352.8478 317.707 352.8238 318.315 352.5718 318.857L352.5718 318.857L352.5608 318.882L352.5608 318.882L352.0988 318.668L352.0988 318.668L352.1108 318.642C 352.3048 318.224 352.3238 317.755 352.1648 317.321C 352.0238 316.937 351.7438 316.615 351.3768 316.412C 351.0118 316.767 350.5358 316.97 350.0368 316.983L350.0368 316.983L350.0088 316.984L350.0088 316.984L349.9928 316.477L349.9928 316.477L350.0208 316.476C 350.4238 316.464 350.7978 316.296 351.0738 316.003C 351.3498 315.711 351.4948 315.328 351.4828 314.925C 351.4718 314.522 351.3038 314.148 351.0118 313.872L351.0118 313.872L350.9908 313.853L350.9908 313.853L351.0098 313.833L351.0098 313.833L351.0088 313.832L351.0088 313.832L351.3148 313.503L351.3148 313.503L351.3378 313.485L351.3378 313.485L351.3398 313.483L351.3398 313.483L351.3608 313.503C 351.3658 313.508 351.3698 313.513 351.3748 313.519C 351.3778 313.522 351.3808 313.526 351.3838 313.529L351.3838 313.529L351.4098 313.554C 351.5508 313.684 351.7358 313.757 351.9308 313.757C 352.0688 313.757 352.2028 313.72 352.3208 313.65C 352.3848 313.612 352.4398 313.568 352.4888 313.514C 352.6278 313.364 352.6998 313.169 352.6918 312.966C 352.6848 312.761 352.5978 312.573 352.4498 312.436z" stroke="none" fill="#FFFFFF" fill-rule="winding" /><path transform="matrix(1 0 0 -1 0 792)" d="M354.4783 319.6185L354.4943 319.6185C 354.5603 319.6185 354.6253 319.6235 354.6893 319.6335C 354.9373 319.6685 355.1753 319.7725 355.3793 319.9345C 355.7893 319.6045 356.3043 319.4235 356.8323 319.4235C 356.9413 319.4235 357.0523 319.4305 357.1603 319.4465C 357.6223 319.5125 358.0483 319.7145 358.3943 320.0305L358.3943 320.0305L358.4153 320.0495L358.4153 320.0495L358.0853 320.4085L358.0853 320.4085L358.0653 320.3895C 357.7273 320.0795 357.2883 319.9095 356.8293 319.9095C 356.3183 319.9095 355.8263 320.1245 355.4813 320.5005C 355.1513 320.8585 354.9813 321.3255 355.0023 321.8145C 355.0233 322.3015 355.2323 322.7525 355.5913 323.0825L355.5913 323.0825L355.6123 323.1015L355.6123 323.1015L355.2843 323.4585L355.2843 323.4585L355.2633 323.4405C 354.8083 323.0235 354.5433 322.4535 354.5163 321.8355C 354.4933 321.2765 354.6773 320.7265 355.0363 320.2835C 354.8743 320.1665 354.6853 320.1045 354.4803 320.1045C 354.2253 320.1045 353.9853 320.2025 353.8043 320.3805L353.8043 320.3805L353.7833 320.4005L353.7833 320.4005L353.4433 320.0535L353.4433 320.0535L353.4633 320.0335C 353.7363 319.7655 354.0963 319.6185 354.4783 319.6185" stroke="none" fill="#FFFFFF" fill-rule="winding" /><path transform="matrix(1 0 0 -1 0 792)" d="M350.9112 320.19L350.8202 318.524L350.8202 318.524L351.3272 318.496L351.3272 318.496L351.4192 320.162C 352.4312 320.236 353.2312 321.044 353.2862 322.052L353.2862 322.052L353.2882 322.08L353.2882 322.08L352.7802 322.108L352.7802 322.108L352.7792 322.08C 352.7352 321.282 352.0752 320.656 351.2762 320.656L351.2762 320.656L351.2762 320.656C 351.2482 320.656 351.2202 320.657 351.1912 320.659C 350.7902 320.68 350.4212 320.858 350.1522 321.158C 349.8832 321.458 349.7472 321.844 349.7692 322.246L349.7692 322.246L349.7702 322.274L349.7702 322.274L349.2632 322.302L349.2632 322.302L349.2612 322.274C 349.2062 321.265 349.9142 320.373 350.9112 320.19" stroke="none" fill="#FFFFFF" fill-rule="winding" /><path transform="matrix(1 0 0 -1 0 792)" d="M355.2519 310.6451C 355.1709 310.6541 355.0889 310.6591 355.0079 310.6591C 354.6189 310.6591 354.2319 310.5511 353.8859 310.3471C 353.6139 310.8571 353.1639 311.2341 352.6169 311.4101C 352.3979 311.4801 352.1719 311.5161 351.9439 311.5161C 351.4119 311.5161 350.8959 311.3231 350.4919 310.9731L350.4919 310.9731L350.4709 310.9541L350.4709 310.9541L350.8539 310.5271L350.8539 310.5271L350.8749 310.5451C 351.1729 310.8011 351.5519 310.9411 351.9429 310.9411C 352.1119 310.9411 352.2789 310.9151 352.4409 310.8631C 352.8559 310.7291 353.1939 310.4411 353.3939 310.0531C 353.4019 310.0361 353.4079 310.0181 353.4149 310.0011C 353.4169 309.9941 353.4199 309.9871 353.4219 309.9801C 352.6549 309.1841 352.5899 307.9411 353.2729 307.0801L353.2729 307.0801L353.2909 307.0581L353.2909 307.0581L353.7399 307.4151L353.7399 307.4151L353.7229 307.4371C 353.1639 308.1421 353.2819 309.1711 353.9859 309.7311C 354.2779 309.9631 354.6289 310.0861 355.0009 310.0861C 355.0629 310.0861 355.1249 310.0821 355.1869 310.0751C 355.6219 310.0251 356.0099 309.8091 356.2799 309.4691L356.2799 309.4691L356.2979 309.4471L356.2979 309.4471L356.7469 309.8051L356.7469 309.8051L356.7299 309.8271C 356.3619 310.2871 355.8369 310.5781 355.2519 310.6451" stroke="none" fill="#FFFFFF" fill-rule="winding" /><path transform="matrix(1 0 0 -1 0 792)" d="M350.6419 308.185C 350.6439 308.185 350.6469 308.185 350.6489 308.185C 350.6679 308.187 350.6869 308.189 350.7049 308.194C 351.2319 308.343 351.6049 308.829 351.6109 309.377L351.6109 309.377L351.6109 309.482L351.6109 309.482L351.1329 309.485L351.1329 309.485L351.1319 309.382C 351.1289 309.046 350.8999 308.746 350.5759 308.654C 350.5099 308.636 350.4409 308.626 350.3619 308.626L350.3619 308.626L350.3609 308.626C 350.1579 308.628 349.9669 308.709 349.8239 308.855C 349.6809 309.001 349.6029 309.193 349.6059 309.396L349.6059 309.396L349.6059 309.5L349.6059 309.5L349.1289 309.505L349.1289 309.505L349.1269 309.401C 349.1239 309.07 349.2499 308.757 349.4829 308.52C 349.6589 308.34 349.8829 308.22 350.1329 308.172C 350.2239 307.404 350.8679 306.827 351.6389 306.827L351.6389 306.827L351.6669 306.827L351.6669 306.827L351.6669 307.335L351.6669 307.335L351.6389 307.335C 351.1469 307.335 350.7229 307.698 350.6419 308.185" stroke="none" fill="#FFFFFF" fill-rule="winding" /><path transform="matrix(1 0 0 -1 0 792)" d="M345.5146 329.8102C 344.7326 329.8102 344.0086 329.3842 343.6216 328.6982C 341.9936 328.6372 340.6496 327.4212 340.4156 325.7982C 340.4106 325.7962 340.4056 325.7942 340.4006 325.7922C 340.3926 325.7882 340.3846 325.7852 340.3756 325.7822L340.3756 325.7822L340.3216 325.7642C 340.2866 325.7532 340.2516 325.7412 340.2186 325.7282L340.2186 325.7282L340.1956 325.7102C 339.0306 325.2412 338.2246 324.1852 338.0886 322.9462C 338.0666 322.7402 338.0636 322.5292 338.0796 322.3172C 336.9596 321.8352 336.1826 320.7872 336.0506 319.5762C 335.9886 319.0152 336.0686 318.4452 336.2816 317.9282C 335.6946 317.2902 335.3346 316.5012 335.2406 315.6452C 335.1156 314.5052 335.4856 313.3642 336.2556 312.5112C 336.1756 312.2082 336.1356 311.8952 336.1356 311.5822C 336.1356 309.5712 337.7716 307.9352 339.7836 307.9352C 339.9256 307.9352 340.0726 307.9442 340.2216 307.9622C 340.6976 306.3232 342.1656 305.2232 343.8796 305.2232C 345.9826 305.2232 347.6936 306.9342 347.6936 309.0372C 347.6936 309.8032 347.4656 310.5412 347.0336 311.1752C 347.3106 311.6922 347.4566 312.2732 347.4566 312.8562C 347.4566 313.4202 347.3196 313.9842 347.0606 314.4872C 347.2146 314.8502 347.3136 315.2272 347.3546 315.6082C 347.4606 316.5772 347.2096 317.5502 346.6476 318.3522C 347.2026 318.9792 347.5426 319.7472 347.6336 320.5752C 347.7556 321.6892 347.4196 322.7722 346.6896 323.6232C 346.9286 324.0362 347.0756 324.4822 347.1266 324.9492C 347.1686 325.3352 347.1436 325.7222 347.0526 326.1002C 347.4666 326.5132 347.6936 327.0572 347.6936 327.6312C 347.6936 328.8332 346.7166 329.8102 345.5146 329.8102M343.8796 305.7312C 342.3256 305.7312 341.0006 306.7902 340.6576 308.3052L340.6576 308.3052L340.6036 308.5442L340.6036 308.5442L340.3636 308.4992C 340.1626 308.4622 339.9676 308.4432 339.7836 308.4432C 338.0526 308.4432 336.6446 309.8512 336.6446 311.5822C 336.6446 311.8952 336.6906 312.2062 336.7826 312.5052L336.7826 312.5052L336.8276 312.6492L336.8276 312.6492L336.7226 312.7572C 335.9876 313.5132 335.6316 314.5452 335.7466 315.5902C 335.8286 316.3432 336.1476 317.0362 336.6676 317.5962L336.6676 317.5962L336.8766 317.8232L336.8766 317.8232L336.7576 318.1072C 336.5726 318.5502 336.5036 319.0392 336.5556 319.5212C 336.6696 320.5552 337.3366 321.4502 338.2966 321.8572L338.2966 321.8572L338.6166 321.9922L338.6166 321.9922L338.5876 322.3382C 338.5726 322.5252 338.5746 322.7112 338.5936 322.8912C 338.7136 323.9832 339.4346 324.8962 340.4756 325.2752C 340.7846 325.3882 341.1146 325.4452 341.4546 325.4452C 343.0196 325.4452 344.2936 324.1722 344.2936 322.6072L344.2936 322.6072L344.2936 322.5792L344.2936 322.5792L344.8016 322.5792L344.8016 322.5792L344.8016 322.6072C 344.8016 323.8162 344.1476 324.9302 343.0916 325.5252C 343.2806 325.6822 343.4996 325.7952 343.7406 325.8602C 343.8836 325.8982 344.0316 325.9182 344.1806 325.9182C 344.2596 325.9182 344.3386 325.9122 344.4166 325.9022L344.4166 325.9022L344.4466 325.8972L344.4466 325.8972L344.4686 326.3942L344.4686 326.3942L344.4426 326.3972C 344.3566 326.4082 344.2686 326.4132 344.1816 326.4132C 343.9896 326.4132 343.7986 326.3882 343.6136 326.3392C 343.2336 326.2372 342.8866 326.0312 342.6076 325.7442C 342.2316 325.8832 341.8446 325.9532 341.4546 325.9532C 341.2996 325.9532 341.1376 325.9422 340.9636 325.9182C 341.2476 327.2592 342.3986 328.1922 343.7756 328.1922L343.7756 328.1922L343.9376 328.1912L343.9376 328.1912L344.0076 328.3382C 344.2826 328.9232 344.8746 329.3012 345.5146 329.3012C 346.4356 329.3012 347.1856 328.5522 347.1856 327.6312C 347.1856 327.1542 346.9726 326.6962 346.6016 326.3742L346.6016 326.3742L346.4786 326.2672L346.4786 326.2672L346.5246 326.1112C 346.6286 325.7512 346.6616 325.3792 346.6206 325.0042C 346.5766 324.6022 346.4496 324.2182 346.2426 323.8652L346.2426 323.8652L346.0676 323.5692L346.0676 323.5692L346.2916 323.3072C 346.9386 322.5582 347.2346 321.6072 347.1276 320.6312C 347.0476 319.9012 346.7456 319.2252 346.2546 318.6752L346.2546 318.6752L345.9976 318.3892L345.9976 318.3892L346.2196 318.0772C 346.7196 317.3722 346.9426 316.5152 346.8496 315.6642C 346.8096 315.2972 346.7076 314.9332 346.5476 314.5822L346.5476 314.5822L346.4936 314.4652L346.4936 314.4652L346.5566 314.3522C 346.8126 313.8962 346.9476 313.3782 346.9476 312.8562C 346.9476 312.3072 346.7986 311.7652 346.5146 311.2892L346.5146 311.2892L346.4276 311.1432L346.4276 311.1432L346.5296 311.0082C 346.9586 310.4302 347.1856 309.7492 347.1856 309.0372C 347.1856 307.2142 345.7026 305.7312 343.8796 305.7312" stroke="none" fill="#FFFFFF" fill-rule="winding" /><path transform="matrix(1 0 0 -1 0 792)" d="M339.1654 317.7954C 339.4714 318.0474 339.8584 318.1864 340.2554 318.1864C 340.3514 318.1864 340.4494 318.1784 340.5444 318.1624C 340.9334 318.0974 341.2904 317.8974 341.5504 317.6004L341.5504 317.6004L341.5684 317.5794L341.5684 317.5794L341.9494 317.8954L341.9494 317.8954L341.9304 317.9164C 341.5954 318.3044 341.1324 318.5654 340.6264 318.6504C 340.5044 318.6714 340.3794 318.6814 340.2554 318.6814C 339.7424 318.6814 339.2434 318.5024 338.8504 318.1774C 338.3944 317.8014 338.1134 317.2704 338.0584 316.6824C 338.0044 316.1124 338.1704 315.5514 338.5254 315.1014L338.5254 315.1014L338.5434 315.0794L338.5434 315.0794L338.9244 315.3944L338.9244 315.3944L338.9084 315.4164C 338.6364 315.7624 338.5094 316.1954 338.5514 316.6364C 338.5944 317.0924 338.8134 317.5034 339.1654 317.7954" stroke="none" fill="#FFFFFF" fill-rule="winding" /><path transform="matrix(1 0 0 -1 0 792)" d="M339.215 312.8343C 339.959 312.8343 340.643 313.2653 340.959 313.9333C 341.179 314.3983 341.204 314.9223 341.03 315.4083C 340.855 315.8933 340.503 316.2813 340.038 316.5023L340.038 316.5023L340.012 316.5143L340.012 316.5143L339.796 316.0543L339.796 316.0543L339.821 316.0423C 340.163 315.8813 340.423 315.5953 340.552 315.2363C 340.68 314.8783 340.661 314.4933 340.499 314.1503C 340.267 313.6593 339.763 313.3423 339.216 313.3423C 339.072 313.3423 338.929 313.3633 338.791 313.4063C 338.662 313.8293 338.409 314.1813 338.056 314.4253C 337.73 314.6513 337.351 314.7703 336.958 314.7703C 336.844 314.7703 336.728 314.7603 336.614 314.7403L336.614 314.7403L336.586 314.7353L336.586 314.7353L336.677 314.2343L336.677 314.2343L336.704 314.2393C 336.789 314.2543 336.874 314.2623 336.959 314.2623C 337.247 314.2623 337.527 314.1743 337.767 314.0083C 338.078 313.7903 338.287 313.4663 338.355 313.0933C 338.493 312.3223 337.979 311.5813 337.208 311.4413L337.208 311.4413L337.181 311.4363L337.181 311.4363L337.272 310.9373L337.272 310.9373L337.299 310.9423C 338.215 311.1073 338.888 311.9303 338.879 312.8643C 338.989 312.8443 339.102 312.8343 339.215 312.8343z" stroke="none" fill="#FFFFFF" fill-rule="winding" /><path transform="matrix(1 0 0 -1 0 792)" d="M345.6674 316.4761L345.6954 316.4771L345.6954 316.4771L345.6804 316.9841L345.6804 316.9841L345.6524 316.9831C 345.1524 316.9701 344.6774 316.7671 344.3114 316.4121C 343.9444 316.6141 343.6654 316.9361 343.5234 317.3211C 343.3654 317.7541 343.3844 318.2241 343.5774 318.6421L343.5774 318.6421L343.5894 318.6681L343.5894 318.6681L343.1274 318.8821L343.1274 318.8821L343.1164 318.8571C 342.8654 318.3151 342.8404 317.7071 343.0464 317.1451C 343.2194 316.6741 343.5454 316.2841 343.9884 316.0151C 343.7864 315.6851 343.6854 315.3041 343.6964 314.9101C 343.7034 314.6811 343.7514 314.4531 343.8384 314.2311C 343.8104 314.2331 343.7824 314.2341 343.7554 314.2341C 343.5314 314.2341 343.3124 314.1741 343.1224 314.0611C 343.0214 314.0001 342.9294 313.9261 342.8484 313.8401C 342.6234 313.5981 342.5054 313.2821 342.5174 312.9491C 342.5314 312.6161 342.6714 312.3091 342.9134 312.0851L342.9134 312.0851L342.9894 312.0151L342.9894 312.0151L343.3144 312.3651L343.3144 312.3651L343.2384 312.4361C 343.0904 312.5731 343.0044 312.7611 342.9964 312.9661C 342.9894 313.1691 343.0614 313.3641 343.1994 313.5141C 343.2474 313.5671 343.3044 313.6121 343.3684 313.6501C 343.4854 313.7201 343.6194 313.7561 343.7574 313.7561C 343.9524 313.7561 344.1374 313.6841 344.2794 313.5541L344.2794 313.5541L344.3124 313.5201C 344.3174 313.5141 344.3224 313.5081 344.3284 313.5021L344.3284 313.5021L344.3404 313.4931L344.3404 313.4931L344.3514 313.4801L344.3514 313.4801L344.6614 313.8121L344.6614 313.8121L344.6784 313.8331L344.6784 313.8331L344.6974 313.8531L344.6974 313.8531L344.6774 313.8721C 344.3844 314.1481 344.2174 314.5221 344.2054 314.9251C 344.1934 315.3281 344.3394 315.7111 344.6144 316.0031C 344.8914 316.2961 345.2654 316.4641 345.6674 316.4761" stroke="none" fill="#FFFFFF" fill-rule="winding" /><path transform="matrix(1 0 0 -1 0 792)" d="M338.528 319.4465C 338.636 319.4305 338.747 319.4235 338.857 319.4235C 339.384 319.4235 339.899 319.6045 340.309 319.9345C 340.513 319.7725 340.751 319.6685 340.999 319.6335C 341.063 319.6235 341.129 319.6185 341.194 319.6185L341.194 319.6185L341.21 319.6185C 341.592 319.6185 341.952 319.7655 342.225 320.0335L342.225 320.0335L342.245 320.0535L342.245 320.0535L341.905 320.4005L341.905 320.4005L341.885 320.3805C 341.703 320.2025 341.463 320.1045 341.199 320.1045L341.199 320.1045L341.199 320.1045C 341.003 320.1045 340.815 320.1665 340.652 320.2835C 341.011 320.7265 341.196 321.2765 341.172 321.8355C 341.146 322.4535 340.88 323.0235 340.425 323.4395L340.425 323.4395L340.405 323.4585L340.405 323.4585L340.077 323.1015L340.077 323.1015L340.097 323.0825C 340.456 322.7525 340.665 322.3015 340.686 321.8145C 340.708 321.3265 340.537 320.8595 340.207 320.5005C 339.862 320.1245 339.371 319.9095 338.859 319.9095C 338.4 319.9095 337.961 320.0795 337.624 320.3895L337.624 320.3895L337.603 320.4085L337.603 320.4085L337.274 320.0495L337.274 320.0495L337.295 320.0305C 337.64 319.7145 338.067 319.5125 338.528 319.4465" stroke="none" fill="#FFFFFF" fill-rule="winding" /><path transform="matrix(1 0 0 -1 0 792)" d="M344.2697 320.1624L344.3607 318.4954L344.3607 318.4954L344.8687 318.5234L344.8687 318.5234L344.7777 320.1904C 345.7747 320.3734 346.4827 321.2644 346.4277 322.2744L346.4277 322.2744L346.4257 322.3024L346.4257 322.3024L345.9177 322.2734L345.9177 322.2734L345.9197 322.2454C 345.9417 321.8444 345.8057 321.4584 345.5367 321.1574C 345.2677 320.8574 344.8987 320.6804 344.4967 320.6584C 344.4687 320.6574 344.4407 320.6564 344.4127 320.6564C 343.6137 320.6564 342.9537 321.2814 342.9097 322.0804L342.9097 322.0804L342.9077 322.1084L342.9077 322.1084L342.4007 322.0804L342.4007 322.0804L342.4017 322.0524C 342.4567 321.0434 343.2577 320.2354 344.2697 320.1624" stroke="none" fill="#FFFFFF" fill-rule="winding" /><path transform="matrix(1 0 0 -1 0 792)" d="M344.8351 310.527L345.2181 310.954L345.2181 310.954L345.1961 310.973C 344.7921 311.323 344.2771 311.516 343.7451 311.516C 343.5171 311.516 343.2901 311.48 343.0721 311.41C 342.5241 311.234 342.0751 310.857 341.8021 310.347C 341.4571 310.551 341.0701 310.659 340.6811 310.659C 340.6001 310.659 340.5171 310.654 340.4361 310.645C 339.8521 310.578 339.3271 310.288 338.9591 309.827L338.9591 309.827L338.9421 309.805L338.9421 309.805L339.3911 309.447L339.3911 309.447L339.4091 309.469C 339.6781 309.81 340.0661 310.025 340.5021 310.075C 340.5631 310.082 340.6261 310.086 340.6871 310.086C 341.0601 310.086 341.4111 309.963 341.7031 309.731C 342.4071 309.171 342.5251 308.142 341.9661 307.437L341.9661 307.437L341.9481 307.415L341.9481 307.415L342.3981 307.058L342.3981 307.058L342.4151 307.08C 343.0991 307.941 343.0341 309.184 342.2671 309.979C 342.2691 309.987 342.2721 309.994 342.2751 310.002C 342.2811 310.019 342.2871 310.036 342.2951 310.053C 342.4951 310.441 342.8331 310.729 343.2481 310.863C 343.4091 310.915 343.5771 310.941 343.7451 310.941C 344.1361 310.941 344.5161 310.801 344.8141 310.545z" stroke="none" fill="#FFFFFF" fill-rule="winding" /><path transform="matrix(1 0 0 -1 0 792)" d="M346.5605 309.5046L346.0825 309.4996L346.0825 309.4996L346.0835 309.3956C 346.0855 309.1936 346.0085 309.0016 345.8645 308.8546C 345.7215 308.7096 345.5315 308.6276 345.3175 308.6256C 345.2475 308.6256 345.1785 308.6356 345.1125 308.6546C 344.7885 308.7466 344.5595 309.0456 344.5565 309.3826L344.5565 309.3826L344.5555 309.4856L344.5555 309.4856L344.0775 309.4816L344.0775 309.4816L344.0785 309.3766C 344.0845 308.8296 344.4565 308.3426 344.9835 308.1936C 345.0025 308.1886 345.0215 308.1866 345.0395 308.1856C 345.0415 308.1856 345.0445 308.1856 345.0465 308.1846C 344.9655 307.6986 344.5415 307.3356 344.0495 307.3356L344.0495 307.3356L344.0215 307.3356L344.0215 307.3356L344.0215 306.8266L344.0215 306.8266L344.0495 306.8266C 344.8205 306.8266 345.4645 307.4036 345.5555 308.1726C 345.8055 308.2206 346.0305 308.3406 346.2055 308.5196C 346.4385 308.7566 346.5645 309.0696 346.5615 309.4016z" stroke="none" fill="#FFFFFF" fill-rule="winding" /></g><path transform="matrix(1 0 0 -1 0 792)" d="M42.066 491.8L572.112 491.8L572.112 491.8L572.112 601.4L572.112 601.4L42.066 601.4z" stroke="none" fill="#D2D3D5" fill-rule="winding" /><g clip-path="url(#4)"><g transform="matrix(0.18875 0 0 0.18875 210 189.5438)"><g transform="matrix(1 0 0 1 0 0)"><image x="0" y="0" xlink:href="img_01.png" width="960" height="592" /></g></g></g><path transform="matrix(1 0 0 -1 0 792)" d="M41.8 233.791L53.863 233.791" stroke="#3D3D3E" stroke-width="4" fill="none" /><path transform="matrix(1 0 0 -1 0 792)" d="M59.8 233.791L50.325 242.6L50.325 242.6L50.325 224.982z" stroke="none" fill="#3D3D3E" fill-rule="winding" /><g clip-path="url(#5)"><g><g clip-path="url(#6)"><g clip-path="url(#7)"><g transform="matrix(0.2386851 0 0 0.2389736 525.9972 705.6533)"><g transform="matrix(1 0 0 1 0 0)"><image x="0" y="0" xlink:href="img_02.png" width="134" height="194" /></g></g></g></g></g></g></g></g></g></svg>